<?xml version="1.0" encoding="UTF-8"?>
<svg id="Layer_1" data-name="Layer 1" xmlns="http://www.w3.org/2000/svg" viewBox="0 0 59.93 59.82">
  <defs>
    <style>
      .cls-1, .cls-2 {
        fill: #f8d72f;
      }

      .cls-2, .cls-3 {
        fill-rule: evenodd;
      }

      .cls-3 {
        fill: #b2272d;
      }
    </style>
  </defs>
  <g id="Straeto">
    <path id="Hringur" class="cls-3" d="m59.93,29.91c0,16.52-13.41,29.91-29.96,29.91S0,46.43,0,29.91C0,13.39,13.41,0,29.96,0s29.96,13.39,29.96,29.91"/>
    <path id="S" class="cls-2" d="m25.81,26.35s2.42-3.08,6.41-3.64c.51-.21,4.08-.16,3.79-3.55-.04-3.04-3.76-3.1-3.8-3.09-5.4-.22-6.78,3.87-6.84,5.58h-11.54c.52-4.2,2.78-14.33,17.46-14.43,14.3-.1,16.92,9.6,16.85,13.39-.18,9.64-12.14,8.13-15.35,12.78-2.17,3.14-1.82,5.99-1.82,7.82h-10.53l.03-2.42c1.12-6.7,1.25-7.07,3.6-10.45"/>
  </g>
  <circle class="cls-1" cx="25.83" cy="48.73" r="5.16"/>
</svg>