<svg width="62px" height="62px" viewBox="540 13 62 62" version="1.1" xmlns="http://www.w3.org/2000/svg" xmlns:xlink="http://www.w3.org/1999/xlink">
    <g id="Straeto" stroke="none" stroke-width="1" fill="none" fill-rule="evenodd" transform="translate(541.000000, 14.000000)">
        <path d="M0.0371126761,30.0004404 C0.0371126761,13.4792477 13.4519014,0.0878256881 29.9990845,0.0878256881 C46.5480282,0.0878256881 59.9628169,13.4792477 59.9628169,30.0004404 C59.9628169,46.519844 46.5480282,59.9120917 29.9990845,59.9120917 C13.4519014,59.9120917 0.0371126761,46.519844 0.0371126761,30.0004404" id="Hringur" fill="#B2272D"/>
        <path d="M36.388761,24.1173563 C44.595099,26.2863013 48.5798878,30.9822646 48.6076342,37.0679985 C48.6600286,48.9463472 35.3353807,52.5312096 30.0652399,52.5312096 C15.0796061,52.5312096 11.7429863,40.1662554 11.3921413,36.0631362 L11.3941131,36.0982279 L23.711437,36.0982279 C23.9701694,38.0387325 25.0603103,43.301393 31.0108737,43.349971 C34.6853807,43.3787325 36.4374934,41.3878609 36.4374934,38.9696958 C36.4374934,37.147127 35.5610145,35.4082279 28.5645356,33.6316224 C23.0853807,32.2399251 13.3901694,30.4937325 13.212423,20.8554756 C13.1415779,17.0680444 15.7674934,7.37309028 30.0652399,7.46942056 C44.7460849,7.5691912 47.0083385,17.7032738 47.5284793,21.9168976 L35.9863666,21.9034114 C35.9283385,20.1861178 34.5427047,16.0984114 29.1473525,16.3196958 C29.1086201,16.3034573 25.3862258,16.3637325 25.3456624,19.4070811 C25.0574934,22.8049251 29.2173525,22.963182 29.1353807,22.9605673 C32.1986201,23.3059802 36.388761,24.1173563 36.388761,24.1173563" id="S" fill="#F8D72F"/>
    </g>
</svg>