<?xml version="1.0" standalone="no"?>
<!DOCTYPE svg PUBLIC "-//W3C//DTD SVG 20010904//EN"
 "http://www.w3.org/TR/2001/REC-SVG-20010904/DTD/svg10.dtd">
<svg version="1.0" xmlns="http://www.w3.org/2000/svg"
 width="700.000000pt" height="700.000000pt" viewBox="0 0 700.000000 700.000000"
 preserveAspectRatio="xMidYMid meet">
<metadata>
Created by potrace 1.14, written by Peter Selinger 2001-2017
</metadata>
<g transform="translate(0.000000,700.000000) scale(0.100000,-0.100000)"
fill="#000000" stroke="none">
<path d="M3278 6995 c-1 -1 -41 -5 -88 -9 -47 -4 -96 -8 -110 -11 -14 -2 -41
-6 -60 -9 -19 -2 -57 -8 -85 -12 -27 -3 -59 -8 -70 -11 -33 -7 -59 -12 -85
-17 -67 -12 -286 -71 -380 -103 -243 -82 -579 -236 -697 -320 -17 -13 -34 -23
-37 -23 -20 0 -336 -228 -430 -310 -410 -356 -737 -793 -930 -1240 -16 -36
-35 -78 -42 -95 -54 -120 -153 -432 -180 -570 -2 -11 -10 -54 -19 -95 -29
-147 -36 -200 -52 -370 -15 -165 -8 -592 12 -711 2 -13 6 -46 9 -74 9 -78 22
-152 51 -285 21 -96 91 -339 114 -395 5 -11 30 -75 55 -142 54 -140 181 -394
249 -501 26 -40 47 -75 47 -78 0 -2 4 -10 10 -17 5 -7 46 -64 91 -126 416
-590 1033 -1051 1718 -1283 199 -67 449 -127 640 -154 25 -3 57 -8 71 -10 162
-25 683 -25 841 1 13 2 47 7 74 10 71 10 87 13 115 18 14 3 43 8 65 12 22 4
67 14 100 22 33 8 71 17 85 20 125 23 456 142 644 233 755 361 1361 983 1695
1740 55 125 58 131 94 235 83 237 107 330 151 575 43 234 51 331 50 595 0 191
-8 378 -19 430 -2 11 -7 41 -10 67 -5 39 -24 148 -50 283 -12 61 -77 289 -111
388 -77 221 -216 516 -315 665 -16 24 -29 45 -29 48 0 16 -187 273 -276 380
-117 141 -270 292 -472 466 -63 55 -229 174 -337 243 -298 190 -660 347 -989
431 -108 27 -271 62 -326 69 -19 3 -46 7 -60 10 -13 2 -52 7 -86 11 -33 3 -74
8 -90 10 -33 5 -540 14 -546 9z"/>
</g>
</svg>
